<svg width="110" height="45" viewBox="0 0 110 45" xmlns="http://www.w3.org/2000/svg">
  <!-- Boeing 777 Wide-body realista -->
  
  <!-- Sombra -->
  <ellipse cx="57" cy="25" rx="50" ry="10" fill="#000" opacity="0.08"/>
  
  <!-- Fuselaje wide-body -->
  <ellipse cx="55" cy="22.5" rx="48" ry="7" fill="#FFFFFF"/>
  <ellipse cx="55" cy="22.5" rx="46" ry="6.5" fill="#F8F8F8"/>
  
  <!-- Nariz distintiva del 777 -->
  <ellipse cx="12" cy="22.5" rx="10" ry="6.5" fill="#E0E0E0"/>
  <ellipse cx="9" cy="22.5" rx="7" ry="4.5" fill="#D0D0D0"/>
  <ellipse cx="6" cy="22.5" rx="4" ry="3" fill="#C0C0C0"/>
  
  <!-- Ventanas de cabina grandes -->
  <polygon points="18,19 28,17 28,28 18,26" fill="#1A1A2E" opacity="0.9"/>
  <polygon points="19,19.5 27,18 27,27 19,25.5" fill="#16213E" opacity="0.8"/>
  <polygon points="20,20 26,18.8 26,26.2 20,25" fill="#4A90E2" opacity="0.7"/>
  
  <!-- Ventanas de pasajeros (dos filas para wide-body) -->
  <!-- Fila superior -->
  <ellipse cx="32" cy="19" rx="1" ry="1.8" fill="#87CEEB" opacity="0.9"/>
  <ellipse cx="36" cy="19" rx="1" ry="1.8" fill="#87CEEB" opacity="0.9"/>
  <ellipse cx="40" cy="19" rx="1" ry="1.8" fill="#87CEEB" opacity="0.9"/>
  <ellipse cx="44" cy="19" rx="1" ry="1.8" fill="#87CEEB" opacity="0.9"/>
  <ellipse cx="48" cy="19" rx="1" ry="1.8" fill="#87CEEB" opacity="0.9"/>
  <ellipse cx="52" cy="19" rx="1" ry="1.8" fill="#87CEEB" opacity="0.9"/>
  <ellipse cx="56" cy="19" rx="1" ry="1.8" fill="#87CEEB" opacity="0.9"/>
  <ellipse cx="60" cy="19" rx="1" ry="1.8" fill="#87CEEB" opacity="0.9"/>
  <ellipse cx="64" cy="19" rx="1" ry="1.8" fill="#87CEEB" opacity="0.9"/>
  <ellipse cx="68" cy="19" rx="1" ry="1.8" fill="#87CEEB" opacity="0.9"/>
  <ellipse cx="72" cy="19" rx="1" ry="1.8" fill="#87CEEB" opacity="0.9"/>
  <ellipse cx="76" cy="19" rx="1" ry="1.8" fill="#87CEEB" opacity="0.9"/>
  <ellipse cx="80" cy="19" rx="1" ry="1.8" fill="#87CEEB" opacity="0.9"/>
  
  <!-- Fila inferior -->
  <ellipse cx="32" cy="26" rx="1" ry="1.8" fill="#87CEEB" opacity="0.9"/>
  <ellipse cx="36" cy="26" rx="1" ry="1.8" fill="#87CEEB" opacity="0.9"/>
  <ellipse cx="40" cy="26" rx="1" ry="1.8" fill="#87CEEB" opacity="0.9"/>
  <ellipse cx="44" cy="26" rx="1" ry="1.8" fill="#87CEEB" opacity="0.9"/>
  <ellipse cx="48" cy="26" rx="1" ry="1.8" fill="#87CEEB" opacity="0.9"/>
  <ellipse cx="52" cy="26" rx="1" ry="1.8" fill="#87CEEB" opacity="0.9"/>
  <ellipse cx="56" cy="26" rx="1" ry="1.8" fill="#87CEEB" opacity="0.9"/>
  <ellipse cx="60" cy="26" rx="1" ry="1.8" fill="#87CEEB" opacity="0.9"/>
  <ellipse cx="64" cy="26" rx="1" ry="1.8" fill="#87CEEB" opacity="0.9"/>
  <ellipse cx="68" cy="26" rx="1" ry="1.8" fill="#87CEEB" opacity="0.9"/>
  <ellipse cx="72" cy="26" rx="1" ry="1.8" fill="#87CEEB" opacity="0.9"/>
  <ellipse cx="76" cy="26" rx="1" ry="1.8" fill="#87CEEB" opacity="0.9"/>
  <ellipse cx="80" cy="26" rx="1" ry="1.8" fill="#87CEEB" opacity="0.9"/>
  
  <!-- Alas del 777 (más grandes) -->
  <ellipse cx="52" cy="22.5" rx="32" ry="18" fill="#E8E8E8"/>
  <ellipse cx="52" cy="22.5" rx="30" ry="16" fill="#F0F0F0"/>
  
  <!-- Winglets curvados característicos -->
  <path d="M 22 12 Q 18 5 15 12 Q 18 19 22 12" fill="#D0D0D0"/>
  <path d="M 82 12 Q 86 5 89 12 Q 86 19 82 12" fill="#D0D0D0"/>
  
  <!-- Motores GE90 grandes -->
  <ellipse cx="42" cy="35" rx="5" ry="8" fill="#C0C0C0"/>
  <ellipse cx="42" cy="35" rx="4.5" ry="7.5" fill="#D8D8D8"/>
  <circle cx="42" cy="35" r="3.5" fill="#303030"/>
  <ellipse cx="62" cy="35" rx="5" ry="8" fill="#C0C0C0"/>
  <ellipse cx="62" cy="35" rx="4.5" ry="7.5" fill="#D8D8D8"/>
  <circle cx="62" cy="35" r="3.5" fill="#303030"/>
  
  <!-- Cola y estabilizadores más grandes -->
  <polygon points="88,22.5 105,17 102,28" fill="#E0E0E0"/>
  <polygon points="89,22.5 103,18 101,27" fill="#F0F0F0"/>
  
  <!-- Estabilizador vertical alto -->
  <polygon points="98,8 108,2 102,22.5 98,22.5" fill="#D0D0D0"/>
  <polygon points="99,10 106,5 101,21 99,21" fill="#E0E0E0"/>
  
  <!-- Líneas de separación del fuselaje -->
  <line x1="30" y1="22.5" x2="88" y2="22.5" stroke="#D0D0D0" stroke-width="0.4"/>
  <line x1="32" y1="17" x2="85" y2="17" stroke="#E8E8E8" stroke-width="0.3"/>
  <line x1="32" y1="28" x2="85" y2="28" stroke="#E8E8E8" stroke-width="0.3"/>
  
  <!-- Puertas de carga -->
  <rect x="70" y="28.5" width="6" height="2" rx="1" fill="#C8C8C8"/>
  <rect x="50" y="28.5" width="6" height="2" rx="1" fill="#C8C8C8"/>
  
  <!-- Luces de navegación -->
  <circle cx="4" cy="22.5" r="1" fill="#FF0000"/>
  <circle cx="102" cy="22.5" r="0.8" fill="#00FF00"/>
  <circle cx="105" cy="5" r="0.8" fill="#FFFFFF"/>
  
  <!-- Antenas -->
  <rect x="45" y="15" width="0.5" height="2" fill="#808080"/>
  <rect x="65" y="15" width="0.5" height="2" fill="#808080"/>
</svg>
